<svg width="192" height="192" viewBox="0 0 192 192" fill="none" xmlns="http://www.w3.org/2000/svg">
<g clip-path="url(#clip0_248_100)">
<rect x="192" width="192" height="192" rx="96" transform="rotate(90 192 0)" fill="#F5F3FF"/>
<g clip-path="url(#clip1_248_100)">
<path d="M48.3562 13.4674C37.4036 19.6646 27.7868 27.9695 20.0608 37.903C12.3349 47.8365 6.65278 59.2018 3.34252 71.343C0.0322641 83.4841 -0.840619 96.1606 0.774254 108.641C2.38913 121.121 6.45978 133.158 12.7513 144.057C19.0427 154.955 27.4305 164.5 37.4303 172.14C47.4301 179.78 58.8441 185.364 71.0133 188.569C83.1826 191.774 95.8662 192.538 108.332 190.815C120.798 189.092 132.799 184.918 143.643 178.533C165.3 165.78 181.043 144.989 187.444 120.685C193.846 96.3812 190.388 70.5326 177.823 48.7663C165.258 26.9999 144.603 11.0781 120.355 4.46707C96.1078 -2.14401 70.2303 1.09084 48.3562 13.4674Z" fill="#F5F3FF"/>
<path fill-rule="evenodd" clip-rule="evenodd" d="M119.506 40.2652C119.727 39.1612 119.729 38.0244 119.511 36.9196C119.293 35.8149 118.86 34.7639 118.236 33.8266C117.612 32.8893 116.81 32.0841 115.874 31.4569C114.939 30.8298 113.89 30.393 112.786 30.1715C111.682 29.95 110.545 29.948 109.44 30.1659C108.335 30.3837 107.284 30.817 106.347 31.441C105.41 32.065 104.605 32.8675 103.977 33.8027C103.35 34.7379 102.913 35.7875 102.692 36.8915L97.2062 64.2515C96.8832 65.8672 97.0327 67.5418 97.6369 69.0748C98.2411 70.6077 99.2744 71.934 100.613 72.8949C101.951 73.8557 103.539 74.4104 105.184 74.4925C106.83 74.5746 108.464 74.1806 109.892 73.3578L129.654 61.9475C131.557 60.7785 132.928 58.9132 133.476 56.7485C134.024 54.5838 133.706 52.2907 132.589 50.3571C131.472 48.4235 129.645 47.0021 127.496 46.3954C125.347 45.7887 123.046 46.0446 121.083 47.1086L117.736 49.0286L119.506 40.2652ZM41.4713 72.2469C40.3987 71.8601 39.2596 71.6912 38.1209 71.7501C36.9822 71.809 35.8666 72.0945 34.8396 72.5899C33.8126 73.0853 32.8947 73.7806 32.1398 74.6352C31.3849 75.4898 30.808 76.4864 30.4431 77.5666C30.0781 78.6469 29.9324 79.7892 30.0144 80.9265C30.0964 82.0638 30.4045 83.1733 30.9206 84.19C31.4368 85.2068 32.1506 86.1103 33.0203 86.8478C33.89 87.5852 34.8982 88.1417 35.9856 88.4846L44.4473 91.3509L41.1148 93.2709C39.1452 94.4075 37.7078 96.28 37.1188 98.4765C36.5299 100.673 36.8375 103.013 37.9742 104.983C39.1108 106.952 40.9833 108.39 43.1798 108.979C45.3762 109.568 47.7166 109.26 49.6862 108.123L69.4348 96.7132C70.861 95.8888 72.0195 94.671 72.7716 93.2053C73.5237 91.7396 73.8375 90.0883 73.6754 88.4489C73.5134 86.8096 72.8823 85.2516 71.8578 83.9616C70.8334 82.6715 69.4588 81.704 67.8988 81.1749L41.4713 72.2469ZM57.7091 135.717C56.7998 134.142 56.5534 132.27 57.024 130.513C57.4947 128.757 58.6439 127.259 60.2188 126.35L140.173 80.1875C141.748 79.2782 143.62 79.0318 145.376 79.5025C147.133 79.9731 148.631 81.1223 149.54 82.6972C153.778 90.0206 156.013 101.993 153.394 114.322C150.706 126.981 142.875 140.146 126.843 149.403C110.797 158.661 95.4782 158.866 83.1765 154.862C71.1902 150.967 61.9468 143.04 57.7091 135.717Z" fill="#8E51FF"/>
</g>
</g>
<defs>
<clipPath id="clip0_248_100">
<rect x="192" width="192" height="192" rx="96" transform="rotate(90 192 0)" fill="white"/>
</clipPath>
<clipPath id="clip1_248_100">
<rect width="192" height="192" fill="white"/>
</clipPath>
</defs>
</svg>
