<svg width="192" height="192" viewBox="0 0 192 192" fill="none" xmlns="http://www.w3.org/2000/svg">
<rect x="192" width="192" height="192" rx="48" transform="rotate(90 192 0)" fill="#8E51FF"/>
<g clip-path="url(#clip0_244_56)">
<path d="M59.2744 32.4754C50.8317 37.2523 43.4188 43.6541 37.4633 51.3112C31.5079 58.9682 27.128 67.729 24.5763 77.0878C22.0247 86.4466 21.3518 96.218 22.5966 105.838C23.8414 115.458 26.9792 124.737 31.8289 133.138C36.6786 141.539 43.1441 148.896 50.8523 154.785C58.5605 160.675 67.3588 164.979 76.7392 167.449C86.1197 169.92 95.8966 170.509 105.506 169.181C115.115 167.853 124.366 164.635 132.725 159.713C149.419 149.883 161.554 133.856 166.488 115.122C171.423 96.3881 168.757 76.4631 159.071 59.6849C149.386 42.9067 133.465 30.6337 114.774 25.5376C96.0829 20.4416 76.1356 22.9351 59.2744 32.4754Z" fill="#F5F3FF"/>
<path fill-rule="evenodd" clip-rule="evenodd" d="M114.119 53.0377C114.29 52.1867 114.291 51.3104 114.123 50.4588C113.955 49.6073 113.621 48.7971 113.14 48.0746C112.659 47.3521 112.041 46.7315 111.32 46.248C110.599 45.7646 109.79 45.4279 108.939 45.2572C108.088 45.0864 107.212 45.0849 106.36 45.2528C105.509 45.4207 104.698 45.7547 103.976 46.2357C103.253 46.7168 102.633 47.3354 102.149 48.0562C101.666 48.7771 101.329 49.5862 101.159 50.4372L96.9299 71.5272C96.681 72.7726 96.7962 74.0635 97.262 75.2451C97.7277 76.4267 98.5242 77.4491 99.5559 78.1898C100.588 78.9304 101.811 79.358 103.08 79.4213C104.348 79.4846 105.608 79.1809 106.709 78.5466L121.942 69.7512C123.409 68.8501 124.466 67.4122 124.888 65.7436C125.311 64.075 125.065 62.3074 124.204 60.8169C123.343 59.3264 121.935 58.2308 120.278 57.7631C118.622 57.2954 116.848 57.4927 115.335 58.3129L112.755 59.7929L114.119 53.0377ZM53.9676 77.6903C53.1408 77.3921 52.2628 77.2619 51.385 77.3073C50.5072 77.3527 49.6474 77.5728 48.8557 77.9547C48.064 78.3366 47.3565 78.8726 46.7746 79.5313C46.1927 80.19 45.748 80.9582 45.4667 81.7909C45.1854 82.6236 45.073 83.5041 45.1362 84.3808C45.1995 85.2575 45.4369 86.1127 45.8348 86.8965C46.2327 87.6802 46.7829 88.3767 47.4533 88.9451C48.1237 89.5136 48.9008 89.9425 49.7391 90.2069L56.2616 92.4163L53.6928 93.8963C52.1746 94.7725 51.0666 96.2158 50.6126 97.9089C50.1586 99.602 50.3958 101.406 51.2719 102.924C52.1481 104.443 53.5915 105.55 55.2846 106.004C56.9776 106.458 58.7817 106.221 60.2999 105.345L75.5228 96.5497C76.6222 95.9143 77.5152 94.9755 78.0949 93.8457C78.6747 92.7159 78.9165 91.443 78.7916 90.1794C78.6667 88.9157 78.1803 87.7148 77.3906 86.7204C76.6009 85.726 75.5413 84.9802 74.3388 84.5723L53.9676 77.6903ZM66.4842 126.615C65.7833 125.401 65.5934 123.958 65.9562 122.604C66.319 121.25 67.2048 120.096 68.4188 119.395L130.05 83.8112C131.264 83.1103 132.707 82.9203 134.061 83.2831C135.415 83.6459 136.57 84.5317 137.271 85.7457C140.537 91.3909 142.26 100.62 140.241 110.123C138.169 119.881 132.133 130.029 119.775 137.165C107.406 144.301 95.5979 144.459 86.1154 141.373C76.8759 138.37 69.7508 132.26 66.4842 126.615Z" fill="#8E51FF"/>
</g>
<defs>
<clipPath id="clip0_244_56">
<rect width="148" height="148" fill="white" transform="translate(22 22)"/>
</clipPath>
</defs>
</svg>
