<svg width="192" height="192" viewBox="0 0 192 192" fill="none" xmlns="http://www.w3.org/2000/svg">
<g clip-path="url(#clip0_248_109)">
<rect x="192" width="192" height="192" rx="32" transform="rotate(90 192 0)" fill="#8E51FF"/>
<g clip-path="url(#clip1_248_109)">
<path fill-rule="evenodd" clip-rule="evenodd" d="M119.506 40.2651C119.727 39.1611 119.729 38.0242 119.511 36.9195C119.293 35.8148 118.86 34.7637 118.236 33.8264C117.612 32.8892 116.81 32.084 115.874 31.4568C114.939 30.8297 113.89 30.3929 112.786 30.1714C111.682 29.9498 110.545 29.9479 109.44 30.1658C108.335 30.3836 107.284 30.8169 106.347 31.4409C105.41 32.0649 104.605 32.8674 103.977 33.8026C103.35 34.7378 102.913 35.7873 102.692 36.8914L97.2062 64.2513C96.8832 65.8671 97.0327 67.5417 97.6369 69.0746C98.2411 70.6076 99.2744 71.9339 100.613 72.8947C101.951 73.8556 103.539 74.4103 105.184 74.4924C106.83 74.5745 108.464 74.1805 109.892 73.3576L129.654 61.9474C131.557 60.7784 132.928 58.9131 133.476 56.7484C134.024 54.5837 133.706 52.2906 132.589 50.357C131.472 48.4234 129.645 47.002 127.496 46.3953C125.347 45.7886 123.046 46.0445 121.083 47.1085L117.736 49.0285L119.506 40.2651ZM41.4713 72.2468C40.3987 71.86 39.2596 71.6911 38.1209 71.75C36.9822 71.8088 35.8666 72.0944 34.8396 72.5898C33.8126 73.0852 32.8947 73.7805 32.1398 74.6351C31.3849 75.4896 30.808 76.4862 30.4431 77.5665C30.0781 78.6468 29.9324 79.789 30.0144 80.9263C30.0964 82.0636 30.4045 83.1732 30.9206 84.1899C31.4368 85.2067 32.1506 86.1102 33.0203 86.8476C33.89 87.5851 34.8982 88.1415 35.9856 88.4845L44.4473 91.3508L41.1148 93.2708C39.1452 94.4074 37.7078 96.2799 37.1188 98.4763C36.5299 100.673 36.8375 103.013 37.9742 104.983C39.1108 106.952 40.9833 108.39 43.1798 108.979C45.3762 109.568 47.7166 109.26 49.6862 108.123L69.4348 96.7131C70.861 95.8887 72.0195 94.6708 72.7716 93.2052C73.5237 91.7395 73.8375 90.0882 73.6754 88.4488C73.5134 86.8094 72.8823 85.2515 71.8578 83.9615C70.8334 82.6714 69.4588 81.7039 67.8988 81.1748L41.4713 72.2468ZM57.7091 135.716C56.7998 134.142 56.5534 132.27 57.024 130.513C57.4947 128.757 58.6439 127.259 60.2188 126.35L140.173 80.1874C141.748 79.2781 143.62 79.0317 145.376 79.5023C147.133 79.973 148.631 81.1222 149.54 82.6971C153.778 90.0205 156.013 101.993 153.394 114.322C150.706 126.981 142.875 140.146 126.843 149.403C110.797 158.661 95.4782 158.866 83.1765 154.862C71.1902 150.967 61.9468 143.04 57.7091 135.716Z" fill="#F5F3FF"/>
</g>
</g>
<defs>
<clipPath id="clip0_248_109">
<rect x="192" width="192" height="192" rx="32" transform="rotate(90 192 0)" fill="white"/>
</clipPath>
<clipPath id="clip1_248_109">
<rect width="192" height="192" fill="white"/>
</clipPath>
</defs>
</svg>
