<svg width="192" height="192" viewBox="0 0 192 192" fill="none" xmlns="http://www.w3.org/2000/svg">
<rect x="192" width="192" height="192" rx="32" transform="rotate(90 192 0)" fill="#0A0A0A"/>
<path fill-rule="evenodd" clip-rule="evenodd" d="M109.625 119.438L123.25 111.625L136.875 103.812L150.5 111.625V119.438V127.25L123.25 142.875L109.625 135.062L96 127.25L109.625 119.438ZM136.875 88.1875L150.5 80.375V64.75L123.25 49.125L96 64.75L123.25 80.375L136.875 88.1875Z" fill="#E5E5E5"/>
<path d="M96 96L109.625 103.812L123.25 111.625L136.875 103.812L123.25 96L136.875 88.1875L123.25 80.375L109.625 88.1875L96 96Z" fill="#FAFAFA"/>
<path fill-rule="evenodd" clip-rule="evenodd" d="M96 33.5L123.25 49.125L96 64.75L82.375 72.5625L68.75 80.375V96L55.125 80.375L41.5 64.75L68.75 49.125L96 33.5ZM55.125 111.625L41.5 127.25L68.75 142.875L82.375 150.688L96 158.5L123.25 142.875L109.625 135.062L96 127.25L82.375 119.438L68.75 111.625V96L55.125 111.625Z" fill="#FAFAFA"/>
<path d="M41.5 96L55.125 111.625L68.75 96L55.125 80.375L41.5 96Z" fill="#E5E5E5"/>
<path d="M96 127.25L109.625 119.438L123.25 111.625M96 127.25L82.375 119.438L68.75 111.625V96M96 127.25L109.625 135.062L123.25 142.875M96 64.75L82.375 72.5625L68.75 80.375M96 64.75L68.75 80.375M96 64.75L123.25 49.125M96 64.75L123.25 80.375M123.25 49.125L96 33.5L68.75 49.125L41.5 64.75L55.125 80.375M123.25 49.125L150.5 64.75V80.375L136.875 88.1875M123.25 111.625L109.625 103.812L96 96L109.625 88.1875L123.25 80.375M123.25 111.625L136.875 103.812M68.75 80.375V96M123.25 80.375L136.875 88.1875M136.875 88.1875L123.25 96L136.875 103.812M136.875 103.812L150.5 111.625V119.438V127.25L123.25 142.875M123.25 142.875L96 158.5L82.375 150.688L68.75 142.875L41.5 127.25L55.125 111.625M55.125 111.625L41.5 96L55.125 80.375M55.125 111.625L68.75 96M55.125 80.375L68.75 96" stroke="#FAFAFA" stroke-width="4"/>
</svg>
